<?xml version="1.0" encoding="UTF-8"?>
<svg xmlns="http://www.w3.org/2000/svg" style="display: none;">
   <symbol id="mytheme-comment" viewBox="0 0 24 24">
      <path fill="currentColor" d="M12 3.75A8.25 8.25 0 0 0 3.75 12c0 1.95.236 3.2 1.227 4.519a.75.75 0 0 1 .11.693c-.232.675-.576 1.683-.862 2.521l-.061.18.646-.173 2.495-.668a.75.75 0 0 1 .57.075A8.25 8.25 0 1 0 12 3.75ZM3 21l-.71-.242.515-1.51.738-2.157C2.476 15.516 2.25 13.966 2.25 12c0-5.385 4.365-9.75 9.75-9.75s9.75 4.365 9.75 9.75-4.365 9.75-9.75 9.75a9.71 9.71 0 0 1-4.599-1.15c-.492.131-1.375.367-2.204.59l-2.003.534L3 21Zm0 0 .194.724a.751.751 0 0 1-.904-.966L3 21Z"/>
   </symbol>
</svg>